<?xml version="1.0" encoding="UTF-8"?>
<!DOCTYPE svg PUBLIC "-//W3C//DTD SVG 1.1//EN" "http://www.w3.org/Graphics/SVG/1.1/DTD/svg11.dtd">
<svg xmlns="http://www.w3.org/2000/svg" version="1.1" width="1024px" height="1024px" style="shape-rendering:geometricPrecision; text-rendering:geometricPrecision; image-rendering:optimizeQuality; fill-rule:evenodd; clip-rule:evenodd" xmlns:xlink="http://www.w3.org/1999/xlink">
<g><path style="opacity:1" fill="#b58b76" d="M 485.5,62.5 C 488.962,61.5184 492.629,61.185 496.5,61.5C 496.5,64.1667 496.5,66.8333 496.5,69.5C 495.532,67.3926 495.198,65.0593 495.5,62.5C 492.167,62.5 488.833,62.5 485.5,62.5 Z"/></g>
<g><path style="opacity:1" fill="#8d3d18" d="M 485.5,62.5 C 488.833,62.5 492.167,62.5 495.5,62.5C 495.198,65.0593 495.532,67.3926 496.5,69.5C 497.398,99.1609 498.065,128.828 498.5,158.5C 498.5,161.167 498.5,163.833 498.5,166.5C 492.833,166.5 487.167,166.5 481.5,166.5C 481.822,160.642 481.489,154.975 480.5,149.5C 480.5,140.5 480.5,131.5 480.5,122.5C 474.464,122.36 468.464,122.693 462.5,123.5C 463.155,138.158 463.488,152.824 463.5,167.5C 458.195,168.194 452.862,168.528 447.5,168.5C 445.66,133.84 443.993,99.173 442.5,64.5C 445.167,64.5 447.833,64.5 450.5,64.5C 453.5,64.5 456.5,64.5 459.5,64.5C 459.198,67.0593 459.532,69.3926 460.5,71.5C 460.643,83.5065 460.977,95.5065 461.5,107.5C 467.529,107.575 473.529,107.241 479.5,106.5C 478.627,91.8527 478.293,77.186 478.5,62.5C 480.833,62.5 483.167,62.5 485.5,62.5 Z"/></g>
<g><path style="opacity:1" fill="#d1b7a9" d="M 450.5,64.5 C 453.625,63.5206 456.958,63.1872 460.5,63.5C 460.5,66.1667 460.5,68.8333 460.5,71.5C 459.532,69.3926 459.198,67.0593 459.5,64.5C 456.5,64.5 453.5,64.5 450.5,64.5 Z"/></g>
<g><path style="opacity:1" fill="#8d3d18" d="M 535.5,63.5 C 554.893,61.2592 566.226,69.5925 569.5,88.5C 566.691,111.957 563.191,135.29 559,158.5C 554.078,167.467 546.411,171.8 536,171.5C 519.186,170.02 510.686,160.853 510.5,144C 512.548,123.449 515.048,102.949 518,82.5C 520.955,73.3831 526.789,67.0498 535.5,63.5 Z"/></g>
<g><path style="opacity:1" fill="#fbf9f8" d="M 540.5,78.5 C 548.102,77.9376 552.102,81.4376 552.5,89C 549.396,109.123 546.563,129.29 544,149.5C 541.016,156.895 536.35,158.228 530,153.5C 528.299,151.1 527.466,148.433 527.5,145.5C 529.926,124.426 532.759,103.426 536,82.5C 537.397,80.9297 538.897,79.5964 540.5,78.5 Z"/></g>
<g><path style="opacity:1" fill="#8c3d18" d="M 610.5,76.5 C 617.479,79.3205 624.479,82.1539 631.5,85C 633.18,85.3468 634.18,86.3468 634.5,88C 628.161,122.867 621.661,157.7 615,192.5C 610.436,191.065 605.936,189.398 601.5,187.5C 601.167,186.5 600.833,185.5 600.5,184.5C 601.755,179.894 602.755,175.228 603.5,170.5C 603.167,169.5 602.833,168.5 602.5,167.5C 596.753,165.362 591.086,163.029 585.5,160.5C 582.009,165.474 579.009,170.808 576.5,176.5C 575.833,176.833 575.167,177.167 574.5,177.5C 569.494,175.664 564.827,173.33 560.5,170.5C 578.21,139.747 594.877,108.414 610.5,76.5 Z"/></g>
<g><path style="opacity:1" fill="#faf7f5" d="M 614.5,103.5 C 615.043,103.56 615.376,103.893 615.5,104.5C 612.5,120.499 609.5,136.499 606.5,152.5C 601.156,151.553 596.156,149.719 591.5,147C 599.307,132.552 606.973,118.052 614.5,103.5 Z"/></g>
<g><path style="opacity:1" fill="#8c3d18" d="M 356.5,83.5 C 358.144,83.2865 359.644,83.6198 361,84.5C 378.167,114.167 395.333,143.833 412.5,173.5C 407.784,176.407 402.784,178.74 397.5,180.5C 396.833,180.167 396.167,179.833 395.5,179.5C 392.5,174.167 389.5,168.833 386.5,163.5C 380.407,165.975 374.407,168.641 368.5,171.5C 370.626,177.671 371.959,184.004 372.5,190.5C 367.717,191.762 363.05,193.428 358.5,195.5C 350.91,160.548 343.576,125.548 336.5,90.5C 343.269,88.1507 349.936,85.8173 356.5,83.5 Z"/></g>
<g><path style="opacity:1" fill="#f9f6f3" d="M 353.5,103.5 C 362.125,118.739 370.792,134.072 379.5,149.5C 375.118,152.197 370.451,154.53 365.5,156.5C 360.75,138.997 356.75,121.33 353.5,103.5 Z"/></g>
<g><path style="opacity:1" fill="#8d3d18" d="M 672.5,103.5 C 679.433,106.634 686.1,110.301 692.5,114.5C 686.692,133.075 681.525,151.742 677,170.5C 686.636,154.7 696.469,139.034 706.5,123.5C 711.16,125.495 715.494,127.995 719.5,131C 701.699,160.965 683.699,190.798 665.5,220.5C 661.626,218.132 657.626,215.966 653.5,214C 652.903,212.938 652.57,211.772 652.5,210.5C 658.793,184.976 665.293,159.643 672,134.5C 659.333,156.5 646.667,178.5 634,200.5C 629.419,198.127 624.919,195.627 620.5,193C 638.488,163.521 655.821,133.688 672.5,103.5 Z"/></g>
<g><path style="opacity:1" fill="#8c3e18" d="M 735.5,153.5 C 752.19,151.759 763.356,158.759 769,174.5C 769.966,186.749 765.133,195.583 754.5,201C 750.5,198 746.5,195 742.5,192C 745.667,188.167 748.833,184.333 752,180.5C 752.441,170.623 747.941,167.456 738.5,171C 725.119,186.926 711.619,202.76 698,218.5C 697.328,227.492 701.494,231.325 710.5,230C 716.792,224.459 721.959,218.292 726,211.5C 724.315,209.983 722.815,208.316 721.5,206.5C 724.219,203.284 727.052,200.284 730,197.5C 735.081,200.627 739.915,204.127 744.5,208C 746.329,209.113 747.163,210.613 747,212.5C 738.203,222.965 729.037,233.132 719.5,243C 705.236,249.955 693.736,246.788 685,233.5C 680.447,225.124 680.447,216.79 685,208.5C 698,192.833 711,177.167 724,161.5C 727.498,158.183 731.331,155.516 735.5,153.5 Z"/></g>
<g><path style="opacity:1" fill="#8c3e18" d="M 301.5,104.5 C 317.144,129.774 332.311,155.441 347,181.5C 348.455,204.376 337.621,214.876 314.5,213C 309.822,211.324 305.989,208.491 303,204.5C 287.334,181.173 272.168,157.506 257.5,133.5C 262.403,129.465 267.57,125.798 273,122.5C 287.918,146.667 302.585,171.001 317,195.5C 322.693,199.992 327.36,198.992 331,192.5C 331.667,190.833 331.667,189.167 331,187.5C 316.5,163.167 302,138.833 287.5,114.5C 291.906,110.754 296.573,107.42 301.5,104.5 Z"/></g>
<g><path style="opacity:1" fill="#dbc5b8" d="M 480.5,149.5 C 481.489,154.975 481.822,160.642 481.5,166.5C 487.167,166.5 492.833,166.5 498.5,166.5C 498.5,163.833 498.5,161.167 498.5,158.5C 499.477,161.287 499.81,164.287 499.5,167.5C 493.167,167.5 486.833,167.5 480.5,167.5C 480.5,161.5 480.5,155.5 480.5,149.5 Z"/></g>
<g><path style="opacity:1" fill="#297a2d" d="M 773.5,488.5 C 772.596,489.209 772.263,490.209 772.5,491.5C 767.167,491.5 761.833,491.5 756.5,491.5C 753.833,491.5 751.167,491.5 748.5,491.5C 752.778,393.566 715.445,316.066 636.5,259C 573.756,218.763 505.756,206.096 432.5,221C 344.266,245.24 283.099,299.74 249,384.5C 236.664,418.696 231.83,453.863 234.5,490C 226.611,491.435 218.611,491.935 210.5,491.5C 205.642,389.408 243.309,307.241 323.5,245C 411.749,183.969 505.749,173.636 605.5,214C 686.117,250.623 738.95,311.456 764,396.5C 771.938,426.651 775.105,457.317 773.5,488.5 Z"/></g>
<g><path style="opacity:1" fill="#8c3e19" d="M 233.5,155.5 C 241.01,155.17 247.677,157.337 253.5,162C 265.667,176.167 277.833,190.333 290,204.5C 292.667,208.5 295.333,212.5 298,216.5C 300.514,223.391 299.514,229.725 295,235.5C 286.61,243.727 277.777,251.393 268.5,258.5C 245.489,232.821 222.823,206.821 200.5,180.5C 207.648,174.519 214.648,168.353 221.5,162C 225.157,159.008 229.157,156.841 233.5,155.5 Z"/></g>
<g><path style="opacity:1" fill="#fcfaf9" d="M 231.5,171.5 C 234.32,171.248 236.986,171.748 239.5,173C 253.708,188.872 267.541,205.039 281,221.5C 281.667,223.833 281.667,226.167 281,228.5C 278.333,231.167 275.667,233.833 273,236.5C 257.039,217.537 240.706,198.871 224,180.5C 223.333,179.833 223.333,179.167 224,178.5C 226.998,176.667 229.498,174.334 231.5,171.5 Z"/></g>
<g><path style="opacity:1" fill="#297b2d" d="M 488.5,290.5 C 487.833,278.5 487.167,278.5 486.5,290.5C 485.34,318.836 484.174,347.169 483,375.5C 451.297,350.69 442.297,319.356 456,281.5C 463.003,265.171 473.67,251.838 488,241.5C 507.928,256.665 520.261,276.665 525,301.5C 526.704,331.425 515.871,355.758 492.5,374.5C 491.682,371.893 491.182,369.226 491,366.5C 490.877,341.131 490.044,315.797 488.5,290.5 Z"/></g>
<g><path style="opacity:1" fill="#8c3d18" d="M 819.5,225.5 C 820.496,225.414 821.329,225.748 822,226.5C 824.698,230.367 827.198,234.367 829.5,238.5C 818.044,246.734 806.378,254.734 794.5,262.5C 797.463,267.594 800.796,272.428 804.5,277C 816.691,271.035 828.358,263.869 839.5,255.5C 842.833,260.167 846.167,264.833 849.5,269.5C 821.327,288.086 793.327,306.919 765.5,326C 764.833,326.667 764.167,326.667 763.5,326C 760.749,321.163 757.749,316.497 754.5,312C 766.833,303.667 779.167,295.333 791.5,287C 788.429,281.679 784.762,276.846 780.5,272.5C 768.528,280.639 756.695,288.972 745,297.5C 740.357,293.168 737.023,288.168 735,282.5C 763.319,263.601 791.485,244.601 819.5,225.5 Z"/></g>
<g><path style="opacity:1" fill="#8d3e18" d="M 162.5,223.5 C 191.946,241.728 221.279,260.228 250.5,279C 246.833,283.864 242.833,288.364 238.5,292.5C 213.431,284.863 188.431,277.363 163.5,270C 185.997,282.412 207.997,295.578 229.5,309.5C 227.084,314.001 224.417,318.334 221.5,322.5C 192.033,304.198 162.7,285.698 133.5,267C 137.333,261.833 141.167,256.667 145,251.5C 145.725,250.941 146.558,250.608 147.5,250.5C 167.042,257.131 186.708,262.964 206.5,268C 189.332,257.584 172.332,246.917 155.5,236C 158.238,232.021 160.571,227.855 162.5,223.5 Z"/></g>
<g><path style="opacity:1" fill="#bfd5c0" d="M 488.5,290.5 C 487.833,290.5 487.167,290.5 486.5,290.5C 487.167,278.5 487.833,278.5 488.5,290.5 Z"/></g>
<g><path style="opacity:1" fill="#8c3d18" d="M 123.5,286.5 C 152.386,298.851 181.052,311.684 209.5,325C 215.605,332.592 217.105,341.092 214,350.5C 208.991,364.423 199.158,370.256 184.5,368C 157.261,356.979 130.261,345.479 103.5,333.5C 105.901,328.624 107.901,323.624 109.5,318.5C 135.667,328.836 161.667,339.67 187.5,351C 196.439,352.395 200.605,348.562 200,339.5C 198.833,338.333 197.667,337.167 196.5,336C 169.926,324.978 143.592,313.478 117.5,301.5C 119.79,296.591 121.79,291.591 123.5,286.5 Z"/></g>
<g><path style="opacity:1" fill="#8c3d18" d="M 857.5,290.5 C 858.496,290.414 859.329,290.748 860,291.5C 862.754,296.008 865.254,300.674 867.5,305.5C 836.385,319.595 805.218,333.595 774,347.5C 770.672,343.727 768.172,339.393 766.5,334.5C 766.709,333.914 767.043,333.414 767.5,333C 797.712,319.058 827.712,304.892 857.5,290.5 Z"/></g>
<g><path style="opacity:1" fill="#8c3d18" d="M 872.5,327.5 C 874.144,327.286 875.644,327.62 877,328.5C 880.528,342.203 884.028,355.87 887.5,369.5C 882.769,370.354 878.102,371.187 873.5,372C 871.418,364.511 869.251,357.011 867,349.5C 857.657,349.956 848.491,351.956 839.5,355.5C 841.655,361.786 843.655,368.12 845.5,374.5C 840.327,376.628 834.993,377.795 829.5,378C 827.676,372.527 825.842,367.027 824,361.5C 823.107,360.919 822.107,360.585 821,360.5C 812.873,362.74 804.707,364.74 796.5,366.5C 798.366,374.964 800.699,383.298 803.5,391.5C 798.718,393.612 793.718,394.946 788.5,395.5C 784.519,381.577 780.853,367.577 777.5,353.5C 809.478,345.591 841.145,336.924 872.5,327.5 Z"/></g>
<g><path style="opacity:1" fill="#297a2d" d="M 514.5,433.5 C 527.642,411.525 545.309,394.025 567.5,381C 575.221,376.473 583.221,372.473 591.5,369C 566.673,374.166 545.507,386 528,404.5C 521.374,412.635 516.208,421.635 512.5,431.5C 504.648,452.092 499.981,473.425 498.5,495.5C 490.5,495.5 482.5,495.5 474.5,495.5C 473.567,473.175 469.567,451.508 462.5,430.5C 456.933,414.417 447.266,401.251 433.5,391C 418.705,380.1 402.371,372.766 384.5,369C 401.277,376.217 416.943,385.217 431.5,396C 443.715,406.63 453.382,419.13 460.5,433.5C 458.603,434.805 456.269,435.471 453.5,435.5C 432.422,434.283 411.755,430.783 391.5,425C 357.925,411.39 338.592,386.557 333.5,350.5C 356.708,341.266 380.708,338.099 405.5,341C 440.83,349.994 464.33,371.827 476,406.5C 480.927,419.878 484.761,433.544 487.5,447.5C 490.413,427.595 496.246,408.595 505,390.5C 529.212,348.983 565.045,332.817 612.5,342C 623.265,344.534 633.932,347.367 644.5,350.5C 636.351,395.148 610.018,421.648 565.5,430C 551.274,432.673 536.941,434.507 522.5,435.5C 519.41,435.478 516.743,434.812 514.5,433.5 Z"/></g>
<g><path style="opacity:1" fill="#eff5ee" d="M 462.5,430.5 C 460.952,430.821 460.285,431.821 460.5,433.5C 453.382,419.13 443.715,406.63 431.5,396C 416.943,385.217 401.277,376.217 384.5,369C 402.371,372.766 418.705,380.1 433.5,391C 447.266,401.251 456.933,414.417 462.5,430.5 Z"/></g>
<g><path style="opacity:1" fill="#f1f6f1" d="M 514.5,433.5 C 514.167,432.5 513.5,431.833 512.5,431.5C 516.208,421.635 521.374,412.635 528,404.5C 545.507,386 566.673,374.166 591.5,369C 583.221,372.473 575.221,376.473 567.5,381C 545.309,394.025 527.642,411.525 514.5,433.5 Z"/></g>
<g><path style="opacity:1" fill="#b2826a" d="M 117.5,404.5 C 106.833,404.5 96.1667,404.5 85.5,404.5C 85.7373,405.791 85.404,406.791 84.5,407.5C 84.5,406.167 84.5,404.833 84.5,403.5C 95.6794,403.172 106.679,403.505 117.5,404.5 Z"/></g>
<g><path style="opacity:1" fill="#bf9d8a" d="M 159.5,403.5 C 160.766,404.09 162.099,404.59 163.5,405C 160.961,405.796 158.628,405.629 156.5,404.5C 157.791,404.737 158.791,404.404 159.5,403.5 Z"/></g>
<g><path style="opacity:1" fill="#8d3d18" d="M 152.5,386.5 C 142.628,384.018 132.628,381.852 122.5,380C 131.019,383.34 139.685,386.173 148.5,388.5C 162.363,393.736 176.363,398.902 190.5,404C 191.081,404.893 191.415,405.893 191.5,407C 190.669,411.151 190.003,415.317 189.5,419.5C 166.503,418.556 143.503,418.056 120.5,418C 142.531,421.727 164.531,425.561 186.5,429.5C 185.507,435.125 184.84,440.792 184.5,446.5C 151.114,440.317 117.781,433.817 84.5,427C 83.267,425.302 82.6004,423.302 82.5,421C 83.0655,416.475 83.7322,411.975 84.5,407.5C 85.404,406.791 85.7373,405.791 85.5,404.5C 96.1667,404.5 106.833,404.5 117.5,404.5C 130.5,404.5 143.5,404.5 156.5,404.5C 158.628,405.629 160.961,405.796 163.5,405C 162.099,404.59 160.766,404.09 159.5,403.5C 136.559,396.681 113.559,390.014 90.5,383.5C 90.713,375.251 92.0463,367.084 94.5,359C 128.436,365.086 162.436,371.252 196.5,377.5C 195.833,383.5 195.167,389.5 194.5,395.5C 180.439,392.755 166.439,389.755 152.5,386.5 Z"/></g>
<g><path style="opacity:1" fill="#eadcd3" d="M 152.5,386.5 C 150.62,386.229 149.287,386.896 148.5,388.5C 139.685,386.173 131.019,383.34 122.5,380C 132.628,381.852 142.628,384.018 152.5,386.5 Z"/></g>
<g><path style="opacity:1" fill="#c9ad9e" d="M 893.5,403.5 C 894.451,404.919 894.784,406.585 894.5,408.5C 893.167,408.5 891.833,408.5 890.5,408.5C 891.209,407.596 892.209,407.263 893.5,407.5C 893.5,406.167 893.5,404.833 893.5,403.5 Z"/></g>
<g><path style="opacity:1" fill="#8c3d18" d="M 893.5,403.5 C 893.5,404.833 893.5,406.167 893.5,407.5C 892.209,407.263 891.209,407.596 890.5,408.5C 865.448,410.45 840.448,412.95 815.5,416C 809.036,417.756 806.87,421.923 809,428.5C 810.877,431.992 813.877,433.326 818,432.5C 843.81,429.623 869.643,426.957 895.5,424.5C 896.074,430.484 896.407,436.484 896.5,442.5C 872.827,444.501 849.161,446.667 825.5,449C 800.936,452.104 789.769,441.27 792,416.5C 794.777,410.057 799.277,405.223 805.5,402C 834.448,398.172 863.448,394.672 892.5,391.5C 892.646,395.519 892.979,399.519 893.5,403.5 Z"/></g>
<g><path style="opacity:1" fill="#8d3d17" d="M 344.5,469.5 C 366.454,468.072 387.454,471.905 407.5,481C 421.226,488.196 435.226,494.863 449.5,501C 479.569,512.968 509.236,511.968 538.5,498C 558.871,486.817 580.204,477.817 602.5,471C 619.423,468.231 636.09,469.231 652.5,474C 665.592,480.045 678.592,486.379 691.5,493C 716.641,504.301 742.974,509.135 770.5,507.5C 761.268,579.14 729.601,638.64 675.5,686C 607.281,741.895 529.281,763.228 441.5,750C 353.827,732.613 287.661,685.446 243,608.5C 225.55,576.984 215.05,543.317 211.5,507.5C 239.707,508.577 266.707,503.41 292.5,492C 303.622,486.939 314.622,481.606 325.5,476C 331.744,473.193 338.077,471.026 344.5,469.5 Z"/></g>
<g><path style="opacity:1" fill="#6b9b6b" d="M 773.5,488.5 C 773.5,489.833 773.5,491.167 773.5,492.5C 767.642,492.822 761.975,492.489 756.5,491.5C 761.833,491.5 767.167,491.5 772.5,491.5C 772.263,490.209 772.596,489.209 773.5,488.5 Z"/></g>
<g><path style="opacity:1" fill="#2a792e" d="M 167.5,500.5 C 170.5,500.5 173.5,500.5 176.5,500.5C 178.327,508.96 179.994,517.46 181.5,526C 180.875,532.578 177.541,537.245 171.5,540C 153.229,543.435 134.896,546.102 116.5,548C 113.098,546.6 110.264,544.433 108,541.5C 105.045,532.012 102.878,522.345 101.5,512.5C 123.785,509.343 145.785,505.343 167.5,500.5 Z"/></g>
<g><path style="opacity:1" fill="#f7faf7" d="M 164.5,514.5 C 165.833,514.5 167.167,514.5 168.5,514.5C 168.83,517.157 169.163,519.824 169.5,522.5C 169.351,524.32 168.684,525.82 167.5,527C 151.22,530.325 134.886,532.991 118.5,535C 116.433,531.519 115.433,527.686 115.5,523.5C 132.058,521.02 148.392,518.02 164.5,514.5 Z"/></g>
<g><path style="opacity:1" fill="#2b7a2f" d="M 817.5,512.5 C 838.991,521.245 859.991,531.078 880.5,542C 886.309,547.592 888.642,554.425 887.5,562.5C 884.167,562.5 880.833,562.5 877.5,562.5C 877.859,555.386 874.526,551.219 867.5,550C 848.111,549.526 828.777,550.359 809.5,552.5C 810.037,547.814 810.704,543.147 811.5,538.5C 824.837,538.667 838.171,538.5 851.5,538C 839.833,533.667 828.167,529.333 816.5,525C 815.919,524.107 815.585,523.107 815.5,522C 816.483,518.888 817.15,515.722 817.5,512.5 Z"/></g>
<g><path style="opacity:1" fill="#fbf9f8" d="M 474.5,530.5 C 476.564,530.687 478.564,531.187 480.5,532C 487.563,532.223 494.563,532.39 501.5,532.5C 508.947,546.567 520.613,554.734 536.5,557C 547.577,559.172 558.577,558.839 569.5,556C 583.153,554.411 596.486,555.745 609.5,560C 617.167,563.667 624.833,567.333 632.5,571C 640.955,573.949 649.622,574.949 658.5,574C 665.042,573.11 671.376,571.777 677.5,570C 662.639,582.965 645.639,586.965 626.5,582C 616.948,577.724 607.281,573.724 597.5,570C 594.318,569.593 591.151,569.093 588,568.5C 587.167,568.833 586.333,569.167 585.5,569.5C 588.505,573.506 591.005,577.84 593,582.5C 596.202,591.772 599.202,601.105 602,610.5C 606.218,617.718 612.052,623.218 619.5,627C 611.471,626.404 603.971,622.57 597,615.5C 592.84,609.027 589.84,602.027 588,594.5C 581.583,581.4 571.25,573.733 557,571.5C 543.54,573.207 530.04,573.707 516.5,573C 509.846,572.253 503.513,570.42 497.5,567.5C 497.428,574.533 499.262,581.2 503,587.5C 507.759,594.015 512.759,600.348 518,606.5C 527.658,617.803 529.992,630.47 525,644.5C 525.956,630.246 520.79,618.746 509.5,610C 503.375,605.544 497.542,600.711 492,595.5C 489.884,591.392 488.217,587.059 487,582.5C 483.032,589.146 479.032,595.813 475,602.5C 472.876,610.056 473.543,617.389 477,624.5C 482.355,631.206 486.688,638.54 490,646.5C 492.492,655.241 491.492,663.575 487,671.5C 486.346,672.696 485.846,672.696 485.5,671.5C 486.915,664.8 486.748,658.134 485,651.5C 480.736,643.972 475.736,636.972 470,630.5C 466.799,624.898 464.799,618.898 464,612.5C 458.768,618.747 454.768,625.747 452,633.5C 452.17,643.531 453.004,653.531 454.5,663.5C 455.45,675.433 451.116,684.933 441.5,692C 437.66,694.421 433.66,696.588 429.5,698.5C 433.439,695.078 437.606,691.078 442,686.5C 446.684,678.766 448.35,670.433 447,661.5C 444.23,653.361 442.397,645.027 441.5,636.5C 441.717,630.965 442.884,625.631 445,620.5C 453.562,602.367 463.895,585.367 476,569.5C 476.688,568.668 476.521,568.002 475.5,567.5C 467.831,570.669 459.831,572.502 451.5,573C 437.826,573.281 424.159,573.281 410.5,573C 394.575,581.27 384.075,594.104 379,611.5C 372.132,621.517 362.632,626.684 350.5,627C 358.152,623.355 364.652,618.189 370,611.5C 374.392,601.048 379.059,590.715 384,580.5C 386.833,576.833 389.667,573.167 392.5,569.5C 386.155,568.389 379.822,568.555 373.5,570C 364.19,572.882 355.19,576.548 346.5,581C 329.601,586.768 314.601,583.768 301.5,572C 316.989,577.056 332.322,576.389 347.5,570C 359.155,563.559 371.488,558.892 384.5,556C 396.841,555.967 409.175,556.467 421.5,557.5C 440.472,558.68 456.638,552.68 470,539.5C 472.038,536.757 473.538,533.757 474.5,530.5 Z"/></g>
<g><path style="opacity:1" fill="#2a792e" d="M 158.5,580.5 C 168.46,578.634 175.294,582.301 179,591.5C 179.839,596.921 179.506,602.254 178,607.5C 176.269,609.617 174.102,611.117 171.5,612C 157.882,614.929 144.548,618.763 131.5,623.5C 129.58,620.661 127.913,617.661 126.5,614.5C 127.518,613.148 128.851,612.148 130.5,611.5C 121.253,606.297 119.587,599.464 125.5,591C 131.647,587.059 138.313,585.392 145.5,586C 153.261,589.26 157.261,595.093 157.5,603.5C 161.168,602.444 164.835,601.278 168.5,600C 171.016,597.146 170.683,594.479 167.5,592C 164.493,591.699 161.493,591.865 158.5,592.5C 158.232,589.26 157.566,586.094 156.5,583C 157.056,581.989 157.722,581.156 158.5,580.5 Z"/></g>
<g><path style="opacity:1" fill="#2a792e" d="M 805.5,582.5 C 808.187,582.336 810.854,582.503 813.5,583C 828.167,589 842.833,595 857.5,601C 855.973,604.554 854.307,608.054 852.5,611.5C 850.941,610.926 849.441,610.26 848,609.5C 852.206,620.419 848.539,627.085 837,629.5C 830.202,628.516 824.035,626.016 818.5,622C 813.336,614.747 813.336,607.414 818.5,600C 815.457,596.148 811.457,594.481 806.5,595C 804.718,597.243 804.218,599.743 805,602.5C 807.333,604.006 809.5,605.673 811.5,607.5C 810.022,610.288 808.689,613.122 807.5,616C 805.365,616.635 803.365,616.301 801.5,615C 794.415,609.669 792.582,602.836 796,594.5C 797.994,589.481 801.161,585.481 805.5,582.5 Z"/></g>
<g><path style="opacity:1" fill="#f7faf6" d="M 140.5,597.5 C 145.989,596.645 149.323,598.978 150.5,604.5C 145.94,606.18 141.274,607.013 136.5,607C 134.604,605.192 134.104,603.025 135,600.5C 136.876,599.391 138.709,598.391 140.5,597.5 Z"/></g>
<g><path style="opacity:1" fill="#f6faf6" d="M 826.5,602.5 C 831.308,603.821 835.808,605.821 840,608.5C 841.616,613.847 839.783,616.68 834.5,617C 831.582,615.291 828.748,613.458 826,611.5C 825.366,608.445 825.532,605.445 826.5,602.5 Z"/></g>
<g><path style="opacity:1" fill="#2a792e" d="M 196.5,633.5 C 198.69,634.802 200.69,636.469 202.5,638.5C 205.761,636.953 208.928,635.287 212,633.5C 214.908,635.745 217.075,638.578 218.5,642C 215.329,644.341 212.329,646.841 209.5,649.5C 211.288,651.576 212.954,653.743 214.5,656C 211.399,657.966 208.232,659.8 205,661.5C 203.056,660.312 201.556,658.646 200.5,656.5C 199.635,655.417 198.635,655.251 197.5,656C 187.998,661.919 178.331,667.586 168.5,673C 165.799,676.534 166.133,679.867 169.5,683C 166.971,685.029 164.304,686.862 161.5,688.5C 151.153,677.836 152.153,668.67 164.5,661C 173.767,655.532 183.1,650.365 192.5,645.5C 192.276,643.213 191.609,641.047 190.5,639C 192.375,636.955 194.375,635.122 196.5,633.5 Z"/></g>
<g><path style="opacity:1" fill="#2a792e" d="M 772.5,640.5 C 778.943,640.037 784.776,641.703 790,645.5C 790.288,649.274 789.122,652.607 786.5,655.5C 784.336,654.586 782.336,653.419 780.5,652C 775.16,651.011 772.66,653.178 773,658.5C 782.021,665.934 791.521,672.767 801.5,679C 806.754,679.371 808.921,676.871 808,671.5C 805.443,668.808 802.609,666.475 799.5,664.5C 800.919,662.664 802.086,660.664 803,658.5C 804.133,656.789 805.633,656.289 807.5,657C 819.038,662.86 821.538,671.36 815,682.5C 810.583,689.306 804.417,691.806 796.5,690C 785.231,683.117 774.398,675.617 764,667.5C 759.316,656.187 762.15,647.187 772.5,640.5 Z"/></g>
<g><path style="opacity:1" fill="#2a792e" d="M 245.5,709.5 C 254.782,708.392 261.949,711.726 267,719.5C 268.525,726.114 266.858,731.78 262,736.5C 260.951,737.517 259.784,737.684 258.5,737C 256.316,734.984 254.316,732.817 252.5,730.5C 254.993,727.898 256.16,724.898 256,721.5C 253.456,718.92 250.956,718.92 248.5,721.5C 247.104,722.852 246.437,724.519 246.5,726.5C 248.459,732.373 249.792,738.373 250.5,744.5C 249.091,758.076 241.757,763.243 228.5,760C 224.333,757.167 220.833,753.667 218,749.5C 215.631,742.219 217.798,736.552 224.5,732.5C 227.672,734.252 230.672,736.252 233.5,738.5C 231.628,740.535 229.961,742.702 228.5,745C 231.256,750.283 234.756,750.783 239,746.5C 239.131,740.679 238.131,735.012 236,729.5C 234.859,720.802 238.026,714.136 245.5,709.5 Z"/></g>
<g><path style="opacity:1" fill="#2b792e" d="M 714.5,707.5 C 716.39,707.297 717.89,707.963 719,709.5C 732,725.833 745,742.167 758,758.5C 758.669,773.498 751.502,780.998 736.5,781C 733.848,779.847 731.848,778.013 730.5,775.5C 732.817,772.683 735.317,770.016 738,767.5C 745.038,773.804 748.038,772.138 747,762.5C 744,758.833 741,755.167 738,751.5C 739.457,758.755 736.957,764.255 730.5,768C 724.971,768.822 720.471,766.989 717,762.5C 712.075,755.571 706.408,749.238 700,743.5C 690.437,733.439 691.604,724.939 703.5,718C 705.833,717.667 708.167,717.333 710.5,717C 708.789,715.867 708.289,714.367 709,712.5C 711.328,711.336 713.162,709.67 714.5,707.5 Z"/></g>
<g><path style="opacity:1" fill="#f8fbf8" d="M 709.5,723.5 C 711.199,723.34 712.866,723.506 714.5,724C 721.947,732.107 728.613,740.774 734.5,750C 733.592,754.586 730.926,756.252 726.5,755C 719.313,747.447 712.48,739.614 706,731.5C 704.78,727.707 705.947,725.04 709.5,723.5 Z"/></g>
<g><path style="opacity:1" fill="#2a792d" d="M 662.5,746.5 C 668.07,745.416 672.57,747.083 676,751.5C 683.633,764.601 691.133,777.768 698.5,791C 698.355,791.772 698.022,792.439 697.5,793C 694.623,794.946 691.623,796.279 688.5,797C 680.623,784.749 673.123,772.249 666,759.5C 659.977,757.207 656.977,759.207 657,765.5C 664.626,777.917 672.126,790.417 679.5,803C 676.399,804.966 673.232,806.8 670,808.5C 668.233,807.66 666.899,806.327 666,804.5C 657.5,790 649,775.5 640.5,761C 643.5,758.833 646.5,756.667 649.5,754.5C 650.99,756.126 652.49,757.792 654,759.5C 653.865,753.15 656.698,748.816 662.5,746.5 Z"/></g>
<g><path style="opacity:1" fill="#2b792e" d="M 291.5,742.5 C 313.018,743.168 318.518,752.835 308,771.5C 302.33,781.32 296.497,790.987 290.5,800.5C 287.865,799.189 285.531,797.522 283.5,795.5C 284.624,794.086 285.624,792.586 286.5,791C 275.715,796.274 269.048,792.941 266.5,781C 267.791,775.252 270.291,770.085 274,765.5C 282.37,759.617 290.037,760.617 297,768.5C 299.254,764.993 301.254,761.327 303,757.5C 303.358,754.128 301.691,752.461 298,752.5C 297.167,752.833 296.333,753.167 295.5,753.5C 294.752,755.332 293.752,756.999 292.5,758.5C 289.339,757.087 286.339,755.42 283.5,753.5C 284.978,748.84 287.645,745.173 291.5,742.5 Z"/></g>
<g><path style="opacity:1" fill="#2a792e" d="M 342.5,767.5 C 350.714,767.357 357.547,770.357 363,776.5C 365.072,782.824 364.239,788.824 360.5,794.5C 357.47,793.568 354.637,792.235 352,790.5C 352.59,787.717 353.423,784.883 354.5,782C 352.335,778.034 349.502,777.534 346,780.5C 341.237,789.792 337.904,799.459 336,809.5C 337.808,811.396 339.975,811.896 342.5,811C 344.87,801.992 349.204,800.992 355.5,808C 350.173,822.608 340.84,825.608 327.5,817C 324.929,814.358 323.596,811.192 323.5,807.5C 326.866,795.428 331.366,783.761 337,772.5C 338.73,770.598 340.563,768.931 342.5,767.5 Z"/></g>
<g><path style="opacity:1" fill="#f7f9f7" d="M 284.5,770.5 C 287.96,770.525 291.294,771.192 294.5,772.5C 292.921,775.994 291.087,779.327 289,782.5C 285.228,786.54 281.728,786.373 278.5,782C 280.633,778.234 282.633,774.401 284.5,770.5 Z"/></g>
<g><path style="opacity:1" fill="#2b792f" d="M 603.5,773.5 C 608.951,772.779 613.785,774.112 618,777.5C 623.105,788.138 627.438,799.138 631,810.5C 632.888,817.588 631.055,823.422 625.5,828C 622.167,829.333 618.833,830.667 615.5,832C 610.331,833.295 605.831,832.128 602,828.5C 596.543,816.13 591.877,803.463 588,790.5C 587.112,785.174 588.945,781.007 593.5,778C 597.042,776.725 600.375,775.225 603.5,773.5 Z"/></g>
<g><path style="opacity:1" fill="#f7faf7" d="M 602.5,783.5 C 605.044,783.104 607.211,783.771 609,785.5C 613.096,795.456 616.596,805.622 619.5,816C 615.92,823.415 612.42,823.248 609,815.5C 606.127,806.381 602.961,797.381 599.5,788.5C 599.757,786.308 600.757,784.641 602.5,783.5 Z"/></g>
<g><path style="opacity:1" fill="#2c7a30" d="M 485.5,784.5 C 489.167,784.5 492.833,784.5 496.5,784.5C 496.182,789.032 496.515,793.366 497.5,797.5C 500.5,797.5 503.5,797.5 506.5,797.5C 506.5,800.5 506.5,803.5 506.5,806.5C 503.5,806.5 500.5,806.5 497.5,806.5C 497.333,818.171 497.5,829.838 498,841.5C 500.719,842.444 503.552,842.777 506.5,842.5C 506.5,845.5 506.5,848.5 506.5,851.5C 500.642,852.013 494.975,851.346 489.5,849.5C 488.139,847.972 486.972,846.305 486,844.5C 485.5,831.838 485.333,819.171 485.5,806.5C 482.833,806.5 480.167,806.5 477.5,806.5C 477.5,803.5 477.5,800.5 477.5,797.5C 480.167,797.5 482.833,797.5 485.5,797.5C 485.5,793.167 485.5,788.833 485.5,784.5 Z"/></g>
<g><path style="opacity:1" fill="#2a792d" d="M 395.5,764.5 C 399.503,764.416 403.169,765.416 406.5,767.5C 403.68,775.09 402.014,782.756 401.5,790.5C 406.607,786.702 411.94,786.536 417.5,790C 421.047,793.49 422.214,797.657 421,802.5C 416.872,816.345 413.372,830.345 410.5,844.5C 406.212,845.014 402.545,843.847 399.5,841C 402.934,827.53 406.267,814.03 409.5,800.5C 406.999,794.767 403.499,794.1 399,798.5C 395.655,812.215 392.155,825.882 388.5,839.5C 385.49,838.731 382.49,837.897 379.5,837C 378.978,836.439 378.645,835.772 378.5,835C 384.539,811.603 390.206,788.103 395.5,764.5 Z"/></g>
<g><path style="opacity:1" fill="#7ca87f" d="M 485.5,784.5 C 489.298,783.517 493.298,783.183 497.5,783.5C 497.5,788.167 497.5,792.833 497.5,797.5C 496.515,793.366 496.182,789.032 496.5,784.5C 492.833,784.5 489.167,784.5 485.5,784.5 Z"/></g>
<g><path style="opacity:1" fill="#2b792f" d="M 550.5,789.5 C 555.347,788.84 559.181,790.507 562,794.5C 562.62,798.888 563.453,803.222 564.5,807.5C 561.054,809.278 557.387,810.278 553.5,810.5C 553.929,806.743 553.263,803.243 551.5,800C 546.92,798.585 544.586,800.251 544.5,805C 547.315,818.388 549.315,831.888 550.5,845.5C 547.447,845.911 544.447,846.577 541.5,847.5C 540.808,846.975 540.308,846.308 540,845.5C 536.625,828.642 534.125,811.808 532.5,795C 534.778,794.014 537.111,793.18 539.5,792.5C 540.624,794.369 541.457,796.369 542,798.5C 543.688,794.315 546.521,791.315 550.5,789.5 Z"/></g>
</svg>
